<svg xmlns="http://www.w3.org/2000/svg" viewBox="0 0 512 512"><defs><linearGradient id="g" x1="0" x2="1" y1="0" y2="1"><stop stop-color="#704722"/><stop offset="1" stop-color="#d69b45"/></linearGradient></defs><rect width="512" height="512" rx="120" fill="#f8efe1"/><path d="M138 124h178c35 0 62 27 62 62v202H178c-31 0-56-25-56-56V140c0-9 7-16 16-16Z" fill="url(#g)"/><path d="M178 158h137c18 0 32 14 32 32v166H185c-17 0-31-14-31-31V182c0-13 11-24 24-24Z" fill="#fff8ea" opacity=".95"/><path d="M256 196v102M205 247h102" stroke="#704722" stroke-width="22" stroke-linecap="round"/><path d="M173 386c21-20 49-31 83-31s62 11 83 31" fill="none" stroke="#704722" stroke-width="18" stroke-linecap="round"/></svg>