<svg xmlns="http://www.w3.org/2000/svg" viewBox="0 0 512 512"><defs><linearGradient id="bg" x1="0" y1="0" x2="1" y2="1"><stop stop-color="#fff7e8"/><stop offset="1" stop-color="#ead0aa"/></linearGradient><linearGradient id="book" x1="0" y1="0" x2="1" y2="1"><stop stop-color="#6d4726"/><stop offset="1" stop-color="#d5a24d"/></linearGradient><filter id="s" x="-20%" y="-20%" width="140%" height="140%"><feDropShadow dx="0" dy="16" stdDeviation="16" flood-color="#5a3719" flood-opacity=".22"/></filter></defs><rect width="512" height="512" rx="116" fill="url(#bg)"/><circle cx="256" cy="128" r="72" fill="#f2d996" opacity=".55"/><path d="M256 78v116M210 130h92" stroke="#6d4726" stroke-width="22" stroke-linecap="round"/><path d="M120 168c0-24 20-44 44-44h86c28 0 50 22 50 50v220H174c-30 0-54-24-54-54V168Z" fill="url(#book)" filter="url(#s)"/><path d="M392 168c0-24-20-44-44-44h-86c-28 0-50 22-50 50v220h126c30 0 54-24 54-54V168Z" fill="url(#book)" filter="url(#s)"/><path d="M160 164h82c18 0 32 14 32 32v160H178c-18 0-32-14-32-32V178c0-8 6-14 14-14Z" fill="#fffaf0"/><path d="M352 164h-82c-18 0-32 14-32 32v160h96c18 0 32-14 32-32V178c0-8-6-14-14-14Z" fill="#fff4df"/><path d="M256 164v202" stroke="#e5c98b" stroke-width="9" stroke-linecap="round"/><path d="M176 218h58M176 252h58M278 218h58M278 252h58" stroke="#9b6a35" stroke-width="10" stroke-linecap="round" opacity=".75"/><path d="M158 405c32-22 65-33 98-33s66 11 98 33" fill="none" stroke="#6d4726" stroke-width="18" stroke-linecap="round"/></svg>