<svg xmlns="http://www.w3.org/2000/svg" viewBox="0 0 512 512"><defs><linearGradient id="bg" x1="0" y1="0" x2="1" y2="1"><stop stop-color="#fff6e7"/><stop offset="1" stop-color="#e6c28b"/></linearGradient><linearGradient id="book" x1="0" y1="0" x2="1" y2="1"><stop stop-color="#5d3b21"/><stop offset=".58" stop-color="#8a5b2c"/><stop offset="1" stop-color="#d7a04b"/></linearGradient><filter id="s" x="-20%" y="-20%" width="140%" height="140%"><feDropShadow dx="0" dy="18" stdDeviation="18" flood-color="#4b2e18" flood-opacity=".26"/></filter></defs><rect width="512" height="512" rx="116" fill="url(#bg)"/><circle cx="408" cy="104" r="64" fill="#fff0c0" opacity=".78"/><path d="M112 143c0-21 17-38 38-38h98c31 0 56 25 56 56v244H165c-29 0-53-24-53-53V143Z" fill="url(#book)" filter="url(#s)"/><path d="M400 143c0-21-17-38-38-38h-98c-31 0-56 25-56 56v244h139c29 0 53-24 53-53V143Z" fill="url(#book)" filter="url(#s)"/><path d="M151 143h91c20 0 36 16 36 36v188H171c-18 0-33-15-33-33V156c0-7 6-13 13-13Z" fill="#fff9ed" opacity=".96"/><path d="M361 143h-91c-20 0-36 16-36 36v188h107c18 0 33-15 33-33V156c0-7-6-13-13-13Z" fill="#fff4df" opacity=".96"/><path d="M256 180v104M207 232h98" stroke="#6b4a2b" stroke-width="21" stroke-linecap="round"/><path d="M180 326c25-16 50-23 76-23s51 7 76 23" fill="none" stroke="#c48c3d" stroke-width="16" stroke-linecap="round"/><path d="M256 143v231" stroke="#e8c991" stroke-width="10" stroke-linecap="round" opacity=".85"/><path d="M131 410c35-26 77-39 125-39s90 13 125 39" fill="none" stroke="#6b4a2b" stroke-width="18" stroke-linecap="round"/></svg>