<svg xmlns="http://www.w3.org/2000/svg" viewBox="0 0 512 512"><defs><radialGradient id="sky" cx="35%" cy="20%" r="80%"><stop stop-color="#233c75"/><stop offset=".55" stop-color="#101a36"/><stop offset="1" stop-color="#090d1f"/></radialGradient><linearGradient id="path" x1="0" y1="0" x2="1" y2="1"><stop stop-color="#66e6d5"/><stop offset=".55" stop-color="#ffd36b"/><stop offset="1" stop-color="#ff8db3"/></linearGradient><filter id="glow" x="-30%" y="-30%" width="160%" height="160%"><feGaussianBlur stdDeviation="8" result="b"/><feMerge><feMergeNode in="b"/><feMergeNode in="SourceGraphic"/></feMerge></filter></defs><rect width="512" height="512" rx="116" fill="url(#sky)"/><circle cx="116" cy="106" r="3" fill="#fff" opacity=".9"/><circle cx="382" cy="88" r="4" fill="#ffd36b" opacity=".85"/><circle cx="420" cy="178" r="2.5" fill="#66e6d5"/><circle cx="94" cy="342" r="3" fill="#ff8db3"/><path d="M93 383C145 318 157 256 221 246c72-12 80-88 146-137" fill="none" stroke="url(#path)" stroke-width="26" stroke-linecap="round" filter="url(#glow)"/><path d="M143 136h126c26 0 47 21 47 47v190H181c-30 0-54-24-54-54V152c0-9 7-16 16-16Z" fill="#fff7e8" opacity=".98"/><path d="M369 136h-126c-26 0-47 21-47 47v190h135c30 0 54-24 54-54V152c0-9-7-16-16-16Z" fill="#ffecc9" opacity=".98"/><path d="M256 165v139M196 234h120" stroke="#101a36" stroke-width="22" stroke-linecap="round"/><path d="M256 136v250" stroke="#d7b770" stroke-width="9" stroke-linecap="round" opacity=".9"/><circle cx="91" cy="383" r="18" fill="#66e6d5"/><circle cx="367" cy="109" r="18" fill="#ffd36b"/><path d="M168 404c31-24 62-36 88-36s57 12 88 36" fill="none" stroke="#ffd36b" stroke-width="18" stroke-linecap="round"/></svg>